<svg width="1798" height="500" viewBox="0 0 1798 500" fill="none" xmlns="http://www.w3.org/2000/svg">
<mask id="mask0_44_85" style="mask-type:luminance" maskUnits="userSpaceOnUse" x="34" y="360" width="191" height="65">
<path d="M34 360.511H224.185V424.432H34V360.511Z" fill="white"/>
</mask>
<g mask="url(#mask0_44_85)">
<path d="M222.779 361.057C222.578 361.057 211.722 361.057 211.722 361.057C210.112 361.057 208.505 362.618 206.895 362.815C204.684 362.815 202.472 362.229 200.261 361.839C177.946 358.128 154.624 363.4 132.109 368.087C130.298 368.477 127.886 368.672 121.653 367.306C66.5691 355.396 58.9295 363.205 51.2899 362.815C49.6802 362.815 48.0731 361.252 46.4634 361.057C31.1842 361.057 33.5987 360.47 35.2058 364.963C38.6232 376.092 39.2275 406.748 53.5013 417.876C64.9594 426.664 84.4608 425.101 97.3281 421C111.602 416.51 123.464 397.57 122.859 388.784C122.057 377.263 135.727 375.702 135.526 389.173C135.325 398.741 147.388 416.51 161.057 421C174.326 425.296 193.627 426.47 204.884 417.876C218.957 406.942 219.562 376.287 222.979 365.158C223.581 363.4 225.191 361.447 222.779 361.057ZM116.629 379.216C115.22 399.523 108.385 415.339 88.2819 420.221C73.4038 423.735 56.3144 421.782 49.0785 407.137C44.0514 397.375 37.2166 369.259 67.5745 365.94C81.6477 364.376 96.1221 365.548 109.792 369.454C114.214 370.625 116.829 374.726 116.629 379.216ZM209.106 407.137C199.86 425.883 174.529 423.345 162.063 417.486C147.388 410.456 142.561 395.032 141.556 379.216C141.355 374.726 143.971 370.625 148.393 369.454C162.063 365.548 176.537 364.376 190.61 365.94C220.567 369.259 214.334 396.593 209.106 407.137Z" fill="#FF451D"/>
</g>
<mask id="mask1_44_85" style="mask-type:luminance" maskUnits="userSpaceOnUse" x="56" y="-30" width="410" height="427">
<path d="M465.944 129.713L446.857 396.359L56.822 236.646L75.9086 -30.0001L465.944 129.713Z" fill="white"/>
</mask>
<g mask="url(#mask1_44_85)">
<path d="M84.9689 174.169C90.6034 95.4531 172.189 63.1839 267.188 102.084C362.195 140.988 434.646 236.333 429.012 315.048C427.183 340.595 417.318 361.208 401.63 376.125C431.9 359.672 451.507 330.563 454.325 291.188C460.711 201.981 378.603 93.9189 270.928 49.828C163.262 5.74057 70.8011 42.3191 64.4157 131.526C61.5972 170.901 76.0389 213.945 102.296 253.552C89.5768 227.004 83.1403 199.715 84.9689 174.169Z" fill="#FF451D"/>
</g>
<mask id="mask2_44_85" style="mask-type:luminance" maskUnits="userSpaceOnUse" x="95" y="57" width="328" height="341">
<path d="M95.3862 269.854L110.608 57.1986L422.207 184.793L406.985 397.448L95.3862 269.854Z" fill="white"/>
</mask>
<g mask="url(#mask2_44_85)">
<path d="M392.659 332.867C397.158 270.008 339.3 193.862 263.432 162.795C187.556 131.725 122.402 157.5 117.903 220.359C116.443 240.75 121.588 262.548 131.743 283.751C110.773 252.125 99.2448 217.753 101.496 186.306C106.596 115.059 180.427 85.8528 266.419 121.065C352.403 156.274 417.976 242.564 412.876 313.811C410.625 345.258 394.964 368.496 370.789 381.637C383.316 369.721 391.199 353.258 392.659 332.867Z" fill="#6B6B6B"/>
</g>
<path d="M289.7 257.867V267.639C289.7 279.252 288.041 289.661 284.725 298.866C281.408 308.071 276.635 315.896 270.406 322.34C264.177 328.783 256.694 333.705 247.957 337.104C239.301 340.502 229.594 342.202 218.835 342.202C208.399 342.202 198.813 340.502 190.076 337.104C181.42 333.705 173.897 328.783 167.506 322.34C161.196 315.896 156.302 308.071 152.824 298.866C149.345 289.661 147.606 279.252 147.606 267.639V257.867C147.606 246.254 149.305 235.88 152.702 226.746C156.181 217.541 161.075 209.716 167.385 203.272C173.695 196.758 181.178 191.801 189.834 188.402C198.57 185.003 208.157 183.304 218.592 183.304C229.351 183.304 239.059 185.003 247.715 188.402C256.451 191.801 263.934 196.758 270.163 203.272C276.473 209.716 281.286 217.541 284.603 226.746C288.001 235.88 289.7 246.254 289.7 257.867ZM266.523 267.639V257.655C266.523 248.449 265.431 240.306 263.247 233.225C261.143 226.144 258.029 220.196 253.903 215.381C249.778 210.566 244.722 206.919 238.735 204.441C232.83 201.962 226.115 200.723 218.592 200.723C211.311 200.723 204.718 201.962 198.813 204.441C192.989 206.919 187.973 210.566 183.766 215.381C179.641 220.196 176.445 226.144 174.18 233.225C171.915 240.306 170.783 248.449 170.783 257.655V267.639C170.783 276.915 171.915 285.129 174.18 292.281C176.445 299.362 179.681 305.345 183.888 310.231C188.175 315.046 193.231 318.693 199.056 321.171C204.961 323.65 211.554 324.889 218.835 324.889C226.439 324.889 233.194 323.65 239.099 321.171C245.005 318.693 249.98 315.046 254.025 310.231C258.15 305.345 261.265 299.362 263.368 292.281C265.471 285.129 266.523 276.915 266.523 267.639Z" fill="#FF451D"/>
<path d="M334.815 428.788C334.815 425.177 334.168 421.991 332.874 419.229C331.66 416.397 329.476 413.848 326.321 411.582C323.247 409.316 318.96 407.156 313.459 405.103C308.039 403.049 301.163 400.96 292.83 398.836C284.094 396.57 276.206 394.056 269.168 391.295C262.13 388.462 256.104 385.24 251.088 381.629C246.072 378.018 242.23 373.875 239.56 369.202C236.891 364.528 235.556 359.182 235.556 353.163C235.556 347.144 236.972 341.586 239.803 336.487C242.634 331.389 246.679 326.964 251.937 323.211C257.277 319.387 263.627 316.413 270.988 314.289C278.35 312.164 286.561 311.102 295.621 311.102C308.888 311.102 320.133 313.333 329.355 317.794C338.658 322.184 345.736 327.955 350.59 335.107C355.444 342.188 357.871 349.764 357.871 357.837H334.573C334.573 352.03 333.157 346.897 330.326 342.436C327.494 337.904 323.207 334.363 317.463 331.814C311.72 329.194 304.439 327.884 295.621 327.884C287.289 327.884 280.413 328.982 274.993 331.177C269.573 333.372 265.528 336.346 262.858 340.099C260.27 343.852 258.975 348.136 258.975 352.951C258.975 356.208 259.744 359.182 261.281 361.873C262.899 364.493 265.366 366.936 268.683 369.202C272.081 371.468 276.368 373.557 281.545 375.468C286.804 377.38 293.073 379.221 300.354 380.992C310.385 383.47 319.041 386.232 326.321 389.276C333.602 392.321 339.588 395.756 344.28 399.579C349.053 403.332 352.572 407.616 354.837 412.431C357.183 417.176 358.356 422.557 358.356 428.576C358.356 434.878 356.9 440.578 353.988 445.677C351.075 450.775 346.909 455.13 341.489 458.741C336.069 462.352 329.557 465.149 321.953 467.132C314.43 469.044 306.016 470 296.713 470C288.543 470 280.494 469.009 272.566 467.026C264.719 465.043 257.56 462.069 251.088 458.104C244.697 454.139 239.56 449.253 235.677 443.446C231.875 437.569 229.974 430.771 229.974 423.053H253.272C253.272 428.364 254.445 432.931 256.791 436.755C259.137 440.508 262.333 443.623 266.377 446.102C270.503 448.58 275.155 450.421 280.332 451.625C285.59 452.758 291.051 453.324 296.713 453.324C304.884 453.324 311.8 452.333 317.463 450.35C323.126 448.367 327.413 445.535 330.326 441.853C333.319 438.171 334.815 433.816 334.815 428.788Z" fill="#FF451D"/>
<path d="M651.16 227.405V235.142C651.16 247.552 649.477 258.69 646.11 268.558C642.744 278.426 637.993 286.836 631.858 293.789C625.723 300.666 618.39 305.937 609.861 309.6C601.407 313.263 592.017 315.094 581.692 315.094C571.442 315.094 562.053 313.263 553.524 309.6C545.069 305.937 537.737 300.666 531.527 293.789C525.318 286.836 520.492 278.426 517.05 268.558C513.683 258.69 512 247.552 512 235.142V227.405C512 214.92 513.683 203.782 517.05 193.988C520.417 184.121 525.168 175.71 531.303 168.758C537.513 161.806 544.845 156.498 553.299 152.835C561.828 149.172 571.218 147.34 581.468 147.34C591.793 147.34 601.182 149.172 609.637 152.835C618.166 156.498 625.498 161.806 631.633 168.758C637.843 175.71 642.631 184.121 645.998 193.988C649.44 203.782 651.16 214.92 651.16 227.405ZM617.156 235.142V227.18C617.156 218.509 616.37 210.884 614.799 204.305C613.228 197.726 610.909 192.194 607.841 187.709C604.774 183.224 601.033 179.859 596.619 177.617C592.204 175.299 587.154 174.141 581.468 174.141C575.782 174.141 570.732 175.299 566.317 177.617C561.978 179.859 558.275 183.224 555.207 187.709C552.214 192.194 549.932 197.726 548.361 204.305C546.79 210.884 546.005 218.509 546.005 227.18V235.142C546.005 243.739 546.79 251.364 548.361 258.018C549.932 264.596 552.252 270.166 555.319 274.726C558.387 279.211 562.128 282.613 566.542 284.93C570.956 287.248 576.006 288.406 581.692 288.406C587.379 288.406 592.429 287.248 596.843 284.93C601.257 282.613 604.961 279.211 607.953 274.726C610.946 270.166 613.228 264.596 614.799 258.018C616.37 251.364 617.156 243.739 617.156 235.142Z" fill="#FF451D"/>
<path d="M705.702 214.846V359.5H673.381V191.522H703.346L705.702 214.846ZM782.577 250.841V253.196C782.577 262.017 781.53 270.203 779.435 277.753C777.415 285.304 774.422 291.882 770.457 297.489C766.492 303.021 761.554 307.357 755.643 310.497C749.807 313.562 743.074 315.094 735.442 315.094C728.035 315.094 721.601 313.599 716.139 310.609C710.678 307.619 706.077 303.432 702.336 298.05C698.67 292.593 695.714 286.276 693.47 279.099C691.225 271.922 689.504 264.222 688.307 255.999V249.832C689.504 241.01 691.225 232.937 693.47 225.611C695.714 218.21 698.67 211.818 702.336 206.435C706.077 200.978 710.64 196.754 716.027 193.764C721.489 190.774 727.886 189.279 735.218 189.279C742.924 189.279 749.695 190.737 755.531 193.652C761.441 196.568 766.379 200.754 770.345 206.211C774.385 211.668 777.415 218.172 779.435 225.723C781.53 233.273 782.577 241.646 782.577 250.841ZM750.144 253.196V250.841C750.144 245.683 749.695 240.936 748.797 236.6C747.974 232.189 746.628 228.339 744.757 225.05C742.962 221.761 740.567 219.219 737.575 217.425C734.657 215.556 731.103 214.621 726.913 214.621C722.499 214.621 718.721 215.332 715.578 216.752C712.511 218.172 710.004 220.228 708.059 222.919C706.114 225.611 704.655 228.825 703.682 232.563C702.71 236.301 702.111 240.525 701.887 245.234V260.821C702.261 266.353 703.308 271.324 705.029 275.735C706.75 280.071 709.406 283.51 712.997 286.051C716.588 288.593 721.302 289.864 727.138 289.864C731.402 289.864 734.993 288.93 737.911 287.061C740.829 285.117 743.186 282.463 744.982 279.099C746.852 275.735 748.161 271.848 748.909 267.437C749.732 263.026 750.144 258.279 750.144 253.196Z" fill="#FF451D"/>
<path d="M862.146 191.522V214.397H791.443V191.522H862.146ZM808.951 161.581H841.272V276.296C841.272 279.809 841.721 282.501 842.618 284.369C843.591 286.238 845.013 287.547 846.883 288.294C848.753 288.967 851.11 289.303 853.953 289.303C855.973 289.303 857.769 289.229 859.34 289.079C860.986 288.855 862.37 288.631 863.492 288.406L863.605 312.179C860.836 313.076 857.844 313.786 854.627 314.31C851.409 314.833 847.856 315.094 843.965 315.094C836.857 315.094 830.648 313.936 825.336 311.618C820.098 309.226 816.058 305.413 813.215 300.18C810.372 294.948 808.951 288.07 808.951 279.548V161.581Z" fill="#FF451D"/>
<path d="M914.668 191.522V312.852H882.234V191.522H914.668ZM880.214 159.899C880.214 155.19 881.86 151.302 885.152 148.237C888.444 145.172 892.858 143.64 898.395 143.64C903.856 143.64 908.233 145.172 911.525 148.237C914.892 151.302 916.575 155.19 916.575 159.899C916.575 164.609 914.892 168.496 911.525 171.561C908.233 174.626 903.856 176.159 898.395 176.159C892.858 176.159 888.444 174.626 885.152 171.561C881.86 168.496 880.214 164.609 880.214 159.899Z" fill="#FF451D"/>
<path d="M973.699 140.5V312.852H941.377V140.5H973.699ZM1050.24 191.522L997.491 251.626L969.21 280.22L957.426 256.896L979.871 228.414L1011.41 191.522H1050.24ZM1016.68 312.852L980.769 256.784L1003.1 237.273L1053.94 312.852H1016.68Z" fill="#FF451D"/>
<path d="M1208.48 270.128C1208.48 267.213 1208.03 264.596 1207.13 262.279C1206.31 259.887 1204.73 257.719 1202.42 255.775C1200.1 253.757 1196.84 251.775 1192.65 249.832C1188.46 247.888 1183.04 245.87 1176.38 243.776C1168.97 241.384 1161.94 238.693 1155.28 235.703C1148.7 232.712 1142.86 229.236 1137.77 225.274C1132.76 221.237 1128.8 216.565 1125.88 211.257C1123.03 205.95 1121.61 199.782 1121.61 192.755C1121.61 185.952 1123.11 179.785 1126.1 174.253C1129.09 168.646 1133.28 163.861 1138.67 159.899C1144.06 155.863 1150.42 152.76 1157.75 150.592C1165.16 148.424 1173.27 147.34 1182.1 147.34C1194.15 147.34 1204.66 149.508 1213.64 153.844C1222.62 158.18 1229.57 164.123 1234.51 171.674C1239.53 179.224 1242.03 187.858 1242.03 197.577H1208.59C1208.59 192.792 1207.58 188.606 1205.56 185.018C1203.61 181.355 1200.62 178.476 1196.58 176.383C1192.61 174.29 1187.6 173.243 1181.54 173.243C1175.71 173.243 1170.84 174.141 1166.95 175.935C1163.06 177.654 1160.14 180.009 1158.2 182.999C1156.25 185.915 1155.28 189.204 1155.28 192.867C1155.28 195.633 1155.95 198.137 1157.3 200.38C1158.72 202.623 1160.82 204.716 1163.59 206.66C1166.35 208.603 1169.76 210.435 1173.8 212.154C1177.84 213.874 1182.51 215.556 1187.83 217.2C1196.73 219.892 1204.55 222.919 1211.28 226.283C1218.09 229.647 1223.78 233.423 1228.34 237.609C1232.9 241.795 1236.35 246.542 1238.66 251.85C1240.98 257.158 1242.14 263.176 1242.14 269.904C1242.14 277.006 1240.76 283.36 1237.99 288.967C1235.22 294.574 1231.22 299.321 1225.98 303.208C1220.75 307.095 1214.5 310.048 1207.24 312.067C1199.98 314.085 1191.87 315.094 1182.89 315.094C1174.81 315.094 1166.84 314.048 1158.98 311.955C1151.13 309.787 1143.98 306.535 1137.55 302.199C1131.19 297.863 1126.1 292.331 1122.29 285.603C1118.47 278.875 1116.56 270.913 1116.56 261.718H1150.34C1150.34 266.802 1151.13 271.1 1152.7 274.614C1154.27 278.127 1156.48 280.968 1159.32 283.136C1162.24 285.304 1165.68 286.874 1169.65 287.846C1173.69 288.817 1178.1 289.303 1182.89 289.303C1188.72 289.303 1193.51 288.481 1197.25 286.836C1201.07 285.192 1203.87 282.912 1205.67 279.996C1207.54 277.081 1208.48 273.791 1208.48 270.128Z" fill="#FF451D"/>
<path d="M1297.13 191.522V312.852H1264.7V191.522H1297.13ZM1262.68 159.899C1262.68 155.19 1264.33 151.302 1267.62 148.237C1270.91 145.172 1275.33 143.64 1280.86 143.64C1286.32 143.64 1290.7 145.172 1293.99 148.237C1297.36 151.302 1299.04 155.19 1299.04 159.899C1299.04 164.609 1297.36 168.496 1293.99 171.561C1290.7 174.626 1286.32 176.159 1280.86 176.159C1275.33 176.159 1270.91 174.626 1267.62 171.561C1264.33 168.496 1262.68 164.609 1262.68 159.899Z" fill="#FF451D"/>
<path d="M1389.5 279.323C1389.5 277.006 1388.82 274.913 1387.48 273.044C1386.13 271.175 1383.62 269.455 1379.96 267.886C1376.37 266.241 1371.17 264.746 1364.36 263.4C1358.22 262.055 1352.5 260.373 1347.19 258.354C1341.95 256.261 1337.39 253.757 1333.5 250.841C1329.68 247.926 1326.69 244.487 1324.52 240.525C1322.35 236.488 1321.26 231.89 1321.26 226.732C1321.26 221.648 1322.35 216.864 1324.52 212.379C1326.76 207.893 1329.94 203.931 1334.06 200.492C1338.25 196.979 1343.33 194.25 1349.32 192.306C1355.38 190.288 1362.19 189.279 1369.74 189.279C1380.29 189.279 1389.35 190.961 1396.9 194.325C1404.53 197.689 1410.37 202.324 1414.41 208.23C1418.53 214.061 1420.58 220.714 1420.58 228.19H1388.26C1388.26 225.05 1387.59 222.247 1386.24 219.78C1384.97 217.238 1382.95 215.257 1380.18 213.836C1377.49 212.341 1373.97 211.594 1369.63 211.594C1366.04 211.594 1362.94 212.229 1360.32 213.5C1357.7 214.696 1355.68 216.341 1354.26 218.434C1352.91 220.452 1352.24 222.695 1352.24 225.162C1352.24 227.031 1352.61 228.713 1353.36 230.208C1354.18 231.629 1355.49 232.937 1357.29 234.133C1359.08 235.329 1361.4 236.45 1364.25 237.497C1367.16 238.469 1370.75 239.366 1375.02 240.188C1383.77 241.982 1391.59 244.337 1398.47 247.253C1405.36 250.093 1410.82 253.981 1414.86 258.915C1418.9 263.774 1420.92 270.166 1420.92 278.09C1420.92 283.472 1419.72 288.406 1417.33 292.892C1414.93 297.377 1411.49 301.302 1407 304.666C1402.51 307.955 1397.13 310.534 1390.84 312.403C1384.63 314.197 1377.64 315.094 1369.86 315.094C1358.56 315.094 1348.98 313.076 1341.13 309.039C1333.35 305.002 1327.44 299.881 1323.4 293.677C1319.43 287.397 1317.45 280.968 1317.45 274.389H1348.09C1348.23 278.8 1349.36 282.351 1351.45 285.042C1353.62 287.733 1356.35 289.677 1359.64 290.873C1363.01 292.069 1366.64 292.667 1370.53 292.667C1374.72 292.667 1378.2 292.107 1380.97 290.985C1383.74 289.789 1385.83 288.219 1387.25 286.276C1388.75 284.257 1389.5 281.94 1389.5 279.323Z" fill="#FF451D"/>
<path d="M1507.45 285.491V231.442C1507.45 227.554 1506.81 224.228 1505.54 221.462C1504.27 218.621 1502.28 216.416 1499.59 214.846C1496.97 213.276 1493.57 212.491 1489.38 212.491C1485.79 212.491 1482.68 213.126 1480.06 214.397C1477.44 215.593 1475.42 217.35 1474 219.667C1472.58 221.91 1471.87 224.564 1471.87 227.629H1439.55C1439.55 222.471 1440.75 217.574 1443.14 212.939C1445.53 208.304 1449.01 204.23 1453.58 200.717C1458.14 197.128 1463.57 194.325 1469.85 192.306C1476.21 190.288 1483.32 189.279 1491.17 189.279C1500.6 189.279 1508.98 190.849 1516.31 193.988C1523.64 197.128 1529.41 201.838 1533.6 208.118C1537.86 214.397 1539.99 222.247 1539.99 231.666V283.584C1539.99 290.238 1540.4 295.695 1541.23 299.956C1542.05 304.143 1543.25 307.806 1544.82 310.945V312.852H1512.16C1510.59 309.562 1509.39 305.451 1508.57 300.517C1507.82 295.508 1507.45 290.499 1507.45 285.491ZM1511.71 238.955L1511.94 257.233H1493.87C1489.6 257.233 1485.9 257.719 1482.76 258.69C1479.61 259.662 1477.03 261.045 1475.01 262.839C1472.99 264.559 1471.5 266.577 1470.52 268.895C1469.63 271.212 1469.18 273.754 1469.18 276.52C1469.18 279.286 1469.81 281.79 1471.09 284.033C1472.36 286.201 1474.19 287.92 1476.58 289.191C1478.98 290.387 1481.78 290.985 1485 290.985C1489.86 290.985 1494.09 290.014 1497.68 288.07C1501.27 286.126 1504.04 283.734 1505.99 280.893C1508.01 278.052 1509.05 275.361 1509.13 272.82L1517.66 286.5C1516.46 289.565 1514.82 292.742 1512.72 296.031C1510.7 299.321 1508.12 302.423 1504.98 305.339C1501.84 308.179 1498.06 310.534 1493.64 312.403C1489.23 314.197 1483.99 315.094 1477.93 315.094C1470.22 315.094 1463.23 313.562 1456.94 310.497C1450.73 307.357 1445.8 303.059 1442.13 297.601C1438.54 292.069 1436.74 285.79 1436.74 278.763C1436.74 272.408 1437.94 266.764 1440.34 261.83C1442.73 256.896 1446.25 252.747 1450.88 249.383C1455.6 245.944 1461.47 243.365 1468.5 241.646C1475.54 239.852 1483.69 238.955 1492.97 238.955H1511.71Z" fill="#FF451D"/>
<path d="M1596.55 217.425V312.852H1564.23V191.522H1594.53L1596.55 217.425ZM1591.84 247.926H1583.09C1583.09 238.955 1584.25 230.881 1586.57 223.704C1588.89 216.453 1592.14 210.285 1596.33 205.202C1600.52 200.044 1605.49 196.119 1611.26 193.428C1617.09 190.662 1623.6 189.279 1630.78 189.279C1636.47 189.279 1641.67 190.101 1646.38 191.746C1651.1 193.39 1655.14 196.007 1658.5 199.595C1661.94 203.184 1664.56 207.931 1666.36 213.836C1668.23 219.742 1669.16 226.956 1669.16 235.478V312.852H1636.62V235.366C1636.62 229.984 1635.87 225.797 1634.37 222.807C1632.88 219.817 1630.67 217.724 1627.75 216.528C1624.91 215.257 1621.39 214.621 1617.2 214.621C1612.86 214.621 1609.09 215.481 1605.87 217.2C1602.73 218.92 1600.11 221.312 1598.01 224.377C1595.99 227.367 1594.46 230.881 1593.41 234.918C1592.36 238.955 1591.84 243.291 1591.84 247.926Z" fill="#FF451D"/>
<path d="M1765.45 286.388V140.612H1798V312.852H1768.71L1765.45 286.388ZM1688.69 253.644V251.29C1688.69 242.02 1689.74 233.61 1691.83 226.059C1693.93 218.434 1697 211.893 1701.04 206.435C1705.08 200.978 1710.05 196.754 1715.96 193.764C1721.87 190.774 1728.61 189.279 1736.16 189.279C1743.27 189.279 1749.48 190.774 1754.79 193.764C1760.18 196.754 1764.74 201.016 1768.48 206.548C1772.3 212.005 1775.37 218.471 1777.69 225.947C1780.01 233.348 1781.69 241.459 1782.74 250.28V255.439C1781.69 263.886 1780.01 271.736 1777.69 278.987C1775.37 286.238 1772.3 292.593 1768.48 298.05C1764.74 303.432 1760.18 307.619 1754.79 310.609C1749.41 313.599 1743.12 315.094 1735.94 315.094C1728.38 315.094 1721.65 313.562 1715.74 310.497C1709.9 307.432 1704.96 303.133 1700.92 297.601C1696.96 292.069 1693.93 285.566 1691.83 278.09C1689.74 270.614 1688.69 262.466 1688.69 253.644ZM1721.01 251.29V253.644C1721.01 258.653 1721.39 263.325 1722.14 267.661C1722.96 271.997 1724.27 275.847 1726.06 279.211C1727.93 282.501 1730.33 285.08 1733.25 286.949C1736.24 288.743 1739.87 289.64 1744.13 289.64C1749.67 289.64 1754.23 288.406 1757.82 285.939C1761.41 283.398 1764.15 279.921 1766.02 275.511C1767.96 271.1 1769.08 266.017 1769.38 260.26V245.571C1769.16 240.861 1768.48 236.637 1767.36 232.899C1766.31 229.087 1764.74 225.835 1762.65 223.144C1760.63 220.452 1758.08 218.359 1755.02 216.864C1752.02 215.369 1748.47 214.621 1744.36 214.621C1740.17 214.621 1736.57 215.593 1733.58 217.537C1730.59 219.406 1728.16 221.985 1726.29 225.274C1724.49 228.563 1723.15 232.451 1722.25 236.936C1721.42 241.347 1721.01 246.131 1721.01 251.29Z" fill="#FF451D"/>
</svg>
