<svg width="1286" height="719" viewBox="0 0 1286 719" fill="none" xmlns="http://www.w3.org/2000/svg">
<mask id="mask0_44_65" style="mask-type:luminance" maskUnits="userSpaceOnUse" x="427" y="360" width="191" height="65">
<path d="M427 360.511H617.185V424.432H427V360.511Z" fill="white"/>
</mask>
<g mask="url(#mask0_44_65)">
<path d="M615.779 361.057C615.578 361.057 604.722 361.057 604.722 361.057C603.112 361.057 601.505 362.618 599.895 362.815C597.684 362.815 595.472 362.229 593.261 361.839C570.946 358.128 547.624 363.4 525.109 368.087C523.298 368.477 520.886 368.672 514.653 367.306C459.569 355.396 451.929 363.205 444.29 362.815C442.68 362.815 441.073 361.252 439.463 361.057C424.184 361.057 426.599 360.47 428.206 364.963C431.623 376.092 432.227 406.748 446.501 417.876C457.959 426.664 477.461 425.101 490.328 421C504.602 416.51 516.464 397.57 515.859 388.784C515.057 377.263 528.727 375.702 528.526 389.173C528.325 398.741 540.388 416.51 554.057 421C567.326 425.296 586.627 426.47 597.884 417.876C611.957 406.942 612.562 376.287 615.979 365.158C616.581 363.4 618.191 361.447 615.779 361.057ZM509.629 379.216C508.22 399.523 501.385 415.339 481.282 420.221C466.404 423.735 449.314 421.782 442.078 407.137C437.051 397.375 430.217 369.259 460.574 365.94C474.648 364.376 489.122 365.548 502.792 369.454C507.214 370.625 509.829 374.726 509.629 379.216ZM602.106 407.137C592.86 425.883 567.529 423.345 555.063 417.486C540.388 410.456 535.561 395.032 534.556 379.216C534.355 374.726 536.971 370.625 541.393 369.454C555.063 365.548 569.537 364.376 583.61 365.94C613.567 369.259 607.334 396.593 602.106 407.137Z" fill="#FF451D"/>
</g>
<mask id="mask1_44_65" style="mask-type:luminance" maskUnits="userSpaceOnUse" x="449" y="-30" width="410" height="427">
<path d="M858.944 129.713L839.857 396.359L449.822 236.646L468.909 -30.0001L858.944 129.713Z" fill="white"/>
</mask>
<g mask="url(#mask1_44_65)">
<path d="M477.969 174.169C483.603 95.4531 565.189 63.1839 660.188 102.084C755.195 140.988 827.646 236.333 822.012 315.048C820.183 340.595 810.318 361.208 794.63 376.125C824.9 359.672 844.507 330.563 847.325 291.188C853.711 201.981 771.603 93.9189 663.928 49.828C556.262 5.74057 463.801 42.3191 457.416 131.526C454.597 170.901 469.039 213.945 495.296 253.552C482.577 227.004 476.14 199.715 477.969 174.169Z" fill="#FF451D"/>
</g>
<mask id="mask2_44_65" style="mask-type:luminance" maskUnits="userSpaceOnUse" x="488" y="57" width="328" height="341">
<path d="M488.386 269.854L503.608 57.1986L815.207 184.793L799.985 397.448L488.386 269.854Z" fill="white"/>
</mask>
<g mask="url(#mask2_44_65)">
<path d="M785.659 332.867C790.158 270.008 732.3 193.862 656.432 162.795C580.556 131.725 515.402 157.5 510.903 220.359C509.443 240.75 514.588 262.548 524.743 283.751C503.773 252.125 492.245 217.753 494.496 186.306C499.596 115.059 573.427 85.8528 659.419 121.065C745.403 156.274 810.976 242.564 805.876 313.811C803.625 345.258 787.964 368.496 763.789 381.637C776.316 369.721 784.199 353.258 785.659 332.867Z" fill="#6B6B6B"/>
</g>
<path d="M682.7 257.867V267.639C682.7 279.252 681.041 289.661 677.725 298.866C674.408 308.071 669.635 315.896 663.406 322.34C657.177 328.783 649.694 333.705 640.957 337.104C632.301 340.502 622.594 342.202 611.835 342.202C601.399 342.202 591.813 340.502 583.076 337.104C574.42 333.705 566.897 328.783 560.506 322.34C554.196 315.896 549.302 308.071 545.824 298.866C542.345 289.661 540.606 279.252 540.606 267.639V257.867C540.606 246.254 542.305 235.88 545.702 226.746C549.181 217.541 554.075 209.716 560.385 203.272C566.695 196.758 574.178 191.801 582.834 188.402C591.57 185.003 601.157 183.304 611.592 183.304C622.351 183.304 632.059 185.003 640.715 188.402C649.451 191.801 656.934 196.758 663.163 203.272C669.473 209.716 674.286 217.541 677.603 226.746C681.001 235.88 682.7 246.254 682.7 257.867ZM659.523 267.639V257.655C659.523 248.449 658.431 240.306 656.247 233.225C654.143 226.144 651.029 220.196 646.903 215.381C642.778 210.566 637.722 206.919 631.735 204.441C625.83 201.962 619.115 200.723 611.592 200.723C604.311 200.723 597.718 201.962 591.813 204.441C585.989 206.919 580.973 210.566 576.766 215.381C572.641 220.196 569.445 226.144 567.18 233.225C564.915 240.306 563.783 248.449 563.783 257.655V267.639C563.783 276.915 564.915 285.129 567.18 292.281C569.445 299.362 572.681 305.345 576.888 310.231C581.175 315.046 586.231 318.693 592.056 321.171C597.961 323.65 604.554 324.889 611.835 324.889C619.439 324.889 626.194 323.65 632.099 321.171C638.005 318.693 642.98 315.046 647.025 310.231C651.15 305.345 654.265 299.362 656.368 292.281C658.471 285.129 659.523 276.915 659.523 267.639Z" fill="#FF451D"/>
<path d="M727.815 428.788C727.815 425.177 727.168 421.991 725.874 419.229C724.66 416.397 722.476 413.848 719.321 411.582C716.247 409.316 711.96 407.156 706.459 405.103C701.039 403.049 694.163 400.96 685.83 398.836C677.094 396.57 669.206 394.056 662.168 391.295C655.13 388.462 649.104 385.24 644.088 381.629C639.072 378.018 635.23 373.875 632.56 369.202C629.891 364.528 628.556 359.182 628.556 353.163C628.556 347.144 629.972 341.586 632.803 336.487C635.634 331.389 639.679 326.964 644.937 323.211C650.277 319.387 656.627 316.413 663.988 314.289C671.35 312.164 679.561 311.102 688.621 311.102C701.888 311.102 713.133 313.333 722.355 317.794C731.658 322.184 738.736 327.955 743.59 335.107C748.444 342.188 750.871 349.764 750.871 357.837H727.573C727.573 352.03 726.157 346.897 723.326 342.436C720.494 337.904 716.207 334.363 710.463 331.814C704.72 329.194 697.439 327.884 688.621 327.884C680.289 327.884 673.413 328.982 667.993 331.177C662.573 333.372 658.528 336.346 655.858 340.099C653.27 343.852 651.975 348.136 651.975 352.951C651.975 356.208 652.744 359.182 654.281 361.873C655.899 364.493 658.366 366.936 661.683 369.202C665.081 371.468 669.368 373.557 674.545 375.468C679.804 377.38 686.073 379.221 693.354 380.992C703.385 383.47 712.041 386.232 719.321 389.276C726.602 392.321 732.588 395.756 737.28 399.579C742.053 403.332 745.572 407.616 747.837 412.431C750.183 417.176 751.356 422.557 751.356 428.576C751.356 434.878 749.9 440.578 746.988 445.677C744.075 450.775 739.909 455.13 734.489 458.741C729.069 462.352 722.557 465.149 714.953 467.132C707.43 469.044 699.016 470 689.713 470C681.543 470 673.494 469.009 665.566 467.026C657.719 465.043 650.56 462.069 644.088 458.104C637.697 454.139 632.56 449.253 628.677 443.446C624.875 437.569 622.974 430.771 622.974 423.053H646.272C646.272 428.364 647.445 432.931 649.791 436.755C652.137 440.508 655.333 443.623 659.377 446.102C663.503 448.58 668.155 450.421 673.332 451.625C678.59 452.758 684.051 453.324 689.713 453.324C697.884 453.324 704.8 452.333 710.463 450.35C716.126 448.367 720.413 445.535 723.326 441.853C726.319 438.171 727.815 433.816 727.815 428.788Z" fill="#FF451D"/>
<path d="M139.16 586.905V594.642C139.16 607.052 137.477 618.19 134.11 628.058C130.744 637.926 125.993 646.336 119.858 653.289C113.723 660.166 106.39 665.437 97.8612 669.1C89.4069 672.763 80.0173 674.594 69.6925 674.594C59.4425 674.594 50.0529 672.763 41.5237 669.1C33.0693 665.437 25.7372 660.166 19.5274 653.289C13.3175 646.336 8.49178 637.926 5.05018 628.058C1.68339 618.19 0 607.052 0 594.642V586.905C0 574.42 1.68339 563.282 5.05018 553.488C8.41696 543.621 13.1679 535.21 19.3029 528.258C25.5128 521.306 32.8449 515.998 41.2992 512.335C49.8284 508.672 59.218 506.84 69.468 506.84C79.7928 506.84 89.1824 508.672 97.6368 512.335C106.166 515.998 113.498 521.306 119.633 528.258C125.843 535.21 130.631 543.621 133.998 553.488C137.44 563.282 139.16 574.42 139.16 586.905ZM105.156 594.642V586.68C105.156 578.009 104.37 570.384 102.799 563.805C101.228 557.226 98.9087 551.694 95.8412 547.209C92.7737 542.724 89.0328 539.359 84.6186 537.117C80.2043 534.799 75.1541 533.641 69.468 533.641C63.7819 533.641 58.7317 534.799 54.3175 537.117C49.9781 539.359 46.2746 542.724 43.2071 547.209C40.2144 551.694 37.9325 557.226 36.3613 563.805C34.7901 570.384 34.0045 578.009 34.0045 586.68V594.642C34.0045 603.239 34.7901 610.864 36.3613 617.518C37.9325 624.096 40.2518 629.666 43.3193 634.226C46.3868 638.711 50.1277 642.113 54.5419 644.43C58.9562 646.748 64.0063 647.906 69.6925 647.906C75.3786 647.906 80.4288 646.748 84.843 644.43C89.2572 642.113 92.9607 638.711 95.9534 634.226C98.9461 629.666 101.228 624.096 102.799 617.518C104.37 610.864 105.156 603.239 105.156 594.642Z" fill="#FF451D"/>
<path d="M193.702 574.346V719H161.381V551.022H191.346L193.702 574.346ZM270.577 610.341V612.696C270.577 621.517 269.53 629.703 267.435 637.253C265.415 644.804 262.422 651.382 258.457 656.989C254.492 662.521 249.554 666.857 243.643 669.997C237.807 673.062 231.074 674.594 223.442 674.594C216.035 674.594 209.601 673.099 204.139 670.109C198.678 667.119 194.077 662.932 190.336 657.55C186.67 652.093 183.714 645.776 181.47 638.599C179.225 631.422 177.504 623.722 176.307 615.499V609.332C177.504 600.51 179.225 592.437 181.47 585.111C183.714 577.71 186.67 571.318 190.336 565.935C194.077 560.478 198.64 556.254 204.027 553.264C209.489 550.274 215.886 548.779 223.218 548.779C230.924 548.779 237.695 550.237 243.531 553.152C249.441 556.068 254.379 560.254 258.345 565.711C262.385 571.168 265.415 577.672 267.435 585.223C269.53 592.773 270.577 601.146 270.577 610.341ZM238.144 612.696V610.341C238.144 605.183 237.695 600.436 236.797 596.1C235.974 591.689 234.628 587.839 232.757 584.55C230.962 581.261 228.567 578.719 225.575 576.925C222.657 575.056 219.103 574.121 214.913 574.121C210.499 574.121 206.721 574.832 203.578 576.252C200.511 577.672 198.004 579.728 196.059 582.419C194.114 585.111 192.655 588.325 191.682 592.063C190.71 595.801 190.111 600.025 189.887 604.734V620.321C190.261 625.853 191.308 630.824 193.029 635.235C194.75 639.571 197.406 643.01 200.997 645.551C204.588 648.093 209.302 649.364 215.138 649.364C219.402 649.364 222.993 648.43 225.911 646.561C228.829 644.617 231.186 641.963 232.982 638.599C234.852 635.235 236.161 631.348 236.909 626.937C237.732 622.526 238.144 617.779 238.144 612.696Z" fill="#FF451D"/>
<path d="M350.146 551.022V573.897H279.443V551.022H350.146ZM296.951 521.081H329.272V635.796C329.272 639.309 329.721 642.001 330.618 643.869C331.591 645.738 333.013 647.047 334.883 647.794C336.753 648.467 339.11 648.803 341.953 648.803C343.973 648.803 345.769 648.729 347.34 648.579C348.986 648.355 350.37 648.131 351.492 647.906L351.605 671.679C348.836 672.576 345.844 673.286 342.627 673.81C339.409 674.333 335.856 674.594 331.965 674.594C324.857 674.594 318.648 673.436 313.336 671.118C308.098 668.726 304.058 664.913 301.215 659.68C298.372 654.448 296.951 647.57 296.951 639.048V521.081Z" fill="#FF451D"/>
<path d="M402.668 551.022V672.352H370.234V551.022H402.668ZM368.214 519.399C368.214 514.69 369.86 510.802 373.152 507.737C376.444 504.672 380.858 503.14 386.395 503.14C391.856 503.14 396.233 504.672 399.525 507.737C402.892 510.802 404.575 514.69 404.575 519.399C404.575 524.109 402.892 527.996 399.525 531.061C396.233 534.126 391.856 535.659 386.395 535.659C380.858 535.659 376.444 534.126 373.152 531.061C369.86 527.996 368.214 524.109 368.214 519.399Z" fill="#FF451D"/>
<path d="M461.699 500V672.352H429.377V500H461.699ZM538.237 551.022L485.491 611.126L457.21 639.72L445.426 616.396L467.871 587.914L499.407 551.022H538.237ZM504.681 672.352L468.769 616.284L491.102 596.773L541.94 672.352H504.681Z" fill="#FF451D"/>
<path d="M696.476 629.628C696.476 626.713 696.027 624.096 695.129 621.779C694.306 619.387 692.735 617.219 690.416 615.275C688.096 613.257 684.842 611.275 680.652 609.332C676.462 607.388 671.038 605.37 664.379 603.276C656.972 600.884 649.939 598.193 643.281 595.203C636.697 592.212 630.861 588.736 625.773 584.774C620.76 580.737 616.795 576.065 613.877 570.757C611.034 565.45 609.613 559.282 609.613 552.255C609.613 545.452 611.109 539.285 614.102 533.753C617.094 528.146 621.284 523.361 626.671 519.399C632.058 515.363 638.417 512.26 645.75 510.092C653.156 507.924 661.274 506.84 670.103 506.84C682.148 506.84 692.66 509.008 701.638 513.344C710.616 517.68 717.574 523.623 722.512 531.174C727.525 538.724 730.031 547.358 730.031 557.077H696.588C696.588 552.292 695.578 548.106 693.558 544.518C691.613 540.855 688.62 537.976 684.58 535.883C680.614 533.79 675.602 532.743 669.541 532.743C663.706 532.743 658.843 533.641 654.952 535.435C651.062 537.154 648.144 539.509 646.198 542.499C644.253 545.415 643.281 548.704 643.281 552.367C643.281 555.133 643.954 557.637 645.301 559.88C646.722 562.123 648.817 564.216 651.585 566.16C654.354 568.103 657.758 569.935 661.798 571.654C665.838 573.374 670.514 575.056 675.826 576.7C684.729 579.392 692.548 582.419 699.281 585.783C706.09 589.147 711.776 592.923 716.34 597.109C720.904 601.295 724.345 606.042 726.665 611.35C728.984 616.658 730.144 622.676 730.144 629.404C730.144 636.506 728.76 642.86 725.991 648.467C723.223 654.074 719.22 658.821 713.983 662.708C708.746 666.595 702.499 669.548 695.241 671.567C687.984 673.585 679.866 674.594 670.888 674.594C662.808 674.594 654.84 673.548 646.984 671.455C639.128 669.287 631.983 666.035 625.549 661.699C619.189 657.363 614.102 651.831 610.286 645.103C606.47 638.375 604.563 630.413 604.563 621.218H638.343C638.343 626.302 639.128 630.6 640.699 634.114C642.271 637.627 644.478 640.468 647.321 642.636C650.239 644.804 653.68 646.374 657.646 647.346C661.686 648.317 666.1 648.803 670.888 648.803C676.724 648.803 681.512 647.981 685.253 646.336C689.069 644.692 691.874 642.412 693.67 639.496C695.541 636.581 696.476 633.291 696.476 629.628Z" fill="#FF451D"/>
<path d="M785.134 551.022V672.352H752.701V551.022H785.134ZM750.681 519.399C750.681 514.69 752.327 510.802 755.619 507.737C758.911 504.672 763.325 503.14 768.862 503.14C774.323 503.14 778.7 504.672 781.992 507.737C785.359 510.802 787.042 514.69 787.042 519.399C787.042 524.109 785.359 527.996 781.992 531.061C778.7 534.126 774.323 535.659 768.862 535.659C763.325 535.659 758.911 534.126 755.619 531.061C752.327 527.996 750.681 524.109 750.681 519.399Z" fill="#FF451D"/>
<path d="M877.497 638.823C877.497 636.506 876.823 634.413 875.477 632.544C874.13 630.675 871.623 628.955 867.957 627.386C864.366 625.741 859.166 624.246 852.358 622.9C846.223 621.555 840.499 619.873 835.187 617.854C829.95 615.761 825.386 613.257 821.496 610.341C817.68 607.426 814.687 603.987 812.518 600.025C810.348 595.988 809.263 591.39 809.263 586.232C809.263 581.148 810.348 576.364 812.518 571.879C814.762 567.393 817.942 563.431 822.057 559.992C826.247 556.479 831.334 553.75 837.32 551.806C843.38 549.788 850.188 548.779 857.745 548.779C868.294 548.779 877.347 550.461 884.904 553.825C892.535 557.189 898.371 561.824 902.411 567.73C906.526 573.561 908.583 580.214 908.583 587.69H876.262C876.262 584.55 875.589 581.747 874.242 579.28C872.97 576.738 870.95 574.757 868.182 573.336C865.488 571.841 861.972 571.094 857.633 571.094C854.041 571.094 850.936 571.729 848.318 573C845.699 574.196 843.679 575.841 842.258 577.934C840.911 579.952 840.238 582.195 840.238 584.662C840.238 586.531 840.612 588.213 841.36 589.708C842.183 591.129 843.492 592.437 845.288 593.633C847.083 594.829 849.403 595.95 852.246 596.997C855.164 597.969 858.755 598.866 863.019 599.688C871.773 601.482 879.592 603.837 886.475 606.753C893.358 609.593 898.82 613.481 902.86 618.415C906.9 623.274 908.92 629.666 908.92 637.59C908.92 642.972 907.723 647.906 905.329 652.392C902.935 656.877 899.493 660.802 895.004 664.166C890.515 667.455 885.128 670.034 878.843 671.903C872.633 673.697 865.638 674.594 857.857 674.594C846.56 674.594 836.983 672.576 829.127 668.539C821.346 664.502 815.436 659.381 811.395 653.177C807.43 646.897 805.447 640.468 805.447 633.889H836.085C836.235 638.3 837.357 641.851 839.452 644.542C841.622 647.233 844.352 649.177 847.644 650.373C851.011 651.569 854.64 652.167 858.53 652.167C862.72 652.167 866.199 651.607 868.967 650.485C871.736 649.289 873.831 647.719 875.252 645.776C876.748 643.757 877.497 641.44 877.497 638.823Z" fill="#FF451D"/>
<path d="M995.446 644.991V590.942C995.446 587.054 994.81 583.728 993.539 580.962C992.267 578.121 990.284 575.916 987.591 574.346C984.972 572.776 981.568 571.991 977.378 571.991C973.787 571.991 970.682 572.626 968.063 573.897C965.445 575.093 963.424 576.85 962.003 579.167C960.581 581.41 959.871 584.064 959.871 587.129H927.55C927.55 581.971 928.747 577.074 931.141 572.439C933.535 567.804 937.014 563.73 941.578 560.217C946.142 556.628 951.566 553.825 957.851 551.806C964.21 549.788 971.318 548.779 979.174 548.779C988.601 548.779 996.98 550.349 1004.31 553.488C1011.64 556.628 1017.41 561.338 1021.6 567.618C1025.86 573.897 1027.99 581.747 1027.99 591.166V643.084C1027.99 649.738 1028.4 655.195 1029.23 659.456C1030.05 663.643 1031.25 667.306 1032.82 670.445V672.352H1000.16C998.589 669.062 997.392 664.951 996.569 660.017C995.82 655.008 995.446 649.999 995.446 644.991ZM999.711 598.455L999.935 616.733H981.867C977.602 616.733 973.899 617.219 970.757 618.19C967.614 619.162 965.033 620.545 963.013 622.339C960.993 624.059 959.497 626.077 958.524 628.395C957.626 630.712 957.177 633.254 957.177 636.02C957.177 638.786 957.813 641.29 959.085 643.533C960.357 645.701 962.19 647.42 964.584 648.691C966.978 649.887 969.784 650.485 973.001 650.485C977.864 650.485 982.091 649.514 985.683 647.57C989.274 645.626 992.042 643.234 993.987 640.393C996.007 637.552 997.055 634.861 997.13 632.32L1005.66 646C1004.46 649.065 1002.82 652.242 1000.72 655.531C998.701 658.821 996.12 661.923 992.977 664.839C989.835 667.679 986.057 670.034 981.643 671.903C977.228 673.697 971.991 674.594 965.931 674.594C958.225 674.594 951.229 673.062 944.945 669.997C938.735 666.857 933.797 662.559 930.131 657.101C926.539 651.569 924.744 645.29 924.744 638.263C924.744 631.908 925.941 626.264 928.335 621.33C930.729 616.396 934.246 612.247 938.884 608.883C943.598 605.444 949.471 602.865 956.504 601.146C963.537 599.352 971.692 598.455 980.969 598.455H999.711Z" fill="#FF451D"/>
<path d="M1084.55 576.925V672.352H1052.23V551.022H1082.53L1084.55 576.925ZM1079.84 607.426H1071.09C1071.09 598.455 1072.25 590.381 1074.57 583.204C1076.89 575.953 1080.14 569.785 1084.33 564.702C1088.52 559.544 1093.49 555.619 1099.26 552.928C1105.09 550.162 1111.6 548.779 1118.78 548.779C1124.47 548.779 1129.67 549.601 1134.38 551.246C1139.1 552.89 1143.14 555.507 1146.5 559.095C1149.94 562.684 1152.56 567.431 1154.36 573.336C1156.23 579.242 1157.16 586.456 1157.16 594.978V672.352H1124.62V594.866C1124.62 589.484 1123.87 585.297 1122.37 582.307C1120.88 579.317 1118.67 577.224 1115.75 576.028C1112.91 574.757 1109.39 574.121 1105.2 574.121C1100.86 574.121 1097.09 574.981 1093.87 576.7C1090.73 578.42 1088.11 580.812 1086.01 583.877C1083.99 586.867 1082.46 590.381 1081.41 594.418C1080.36 598.455 1079.84 602.791 1079.84 607.426Z" fill="#FF451D"/>
<path d="M1253.45 645.888V500.112H1286V672.352H1256.71L1253.45 645.888ZM1176.69 613.144V610.79C1176.69 601.52 1177.74 593.11 1179.83 585.559C1181.93 577.934 1185 571.393 1189.04 565.935C1193.08 560.478 1198.05 556.254 1203.96 553.264C1209.87 550.274 1216.61 548.779 1224.16 548.779C1231.27 548.779 1237.48 550.274 1242.79 553.264C1248.18 556.254 1252.74 560.516 1256.48 566.048C1260.3 571.505 1263.37 577.971 1265.69 585.447C1268.01 592.848 1269.69 600.959 1270.74 609.78V614.939C1269.69 623.386 1268.01 631.236 1265.69 638.487C1263.37 645.738 1260.3 652.093 1256.48 657.55C1252.74 662.932 1248.18 667.119 1242.79 670.109C1237.41 673.099 1231.12 674.594 1223.94 674.594C1216.38 674.594 1209.65 673.062 1203.74 669.997C1197.9 666.932 1192.96 662.633 1188.92 657.101C1184.96 651.569 1181.93 645.066 1179.83 637.59C1177.74 630.114 1176.69 621.966 1176.69 613.144ZM1209.01 610.79V613.144C1209.01 618.153 1209.39 622.825 1210.14 627.161C1210.96 631.497 1212.27 635.347 1214.06 638.711C1215.93 642.001 1218.33 644.58 1221.25 646.449C1224.24 648.243 1227.87 649.14 1232.13 649.14C1237.67 649.14 1242.23 647.906 1245.82 645.439C1249.41 642.898 1252.15 639.421 1254.02 635.011C1255.96 630.6 1257.08 625.517 1257.38 619.76V605.071C1257.16 600.361 1256.48 596.137 1255.36 592.399C1254.31 588.587 1252.74 585.335 1250.65 582.644C1248.63 579.952 1246.08 577.859 1243.02 576.364C1240.02 574.869 1236.47 574.121 1232.36 574.121C1228.17 574.121 1224.57 575.093 1221.58 577.037C1218.59 578.906 1216.16 581.485 1214.29 584.774C1212.49 588.063 1211.15 591.951 1210.25 596.436C1209.42 600.847 1209.01 605.631 1209.01 610.79Z" fill="#FF451D"/>
</svg>
